<?xml version="1.0" encoding="UTF-8" standalone="no"?><!DOCTYPE svg PUBLIC "-//W3C//DTD SVG 1.1//EN" "http://www.w3.org/Graphics/SVG/1.1/DTD/svg11.dtd"><!-- Generated by graphviz version 2.40.1 (20161225.0304)
 --><!-- Title: Tree Pages: 1 --><svg xmlns="http://www.w3.org/2000/svg" xmlns:xlink="http://www.w3.org/1999/xlink" width="2038pt" height="622pt" viewBox="0.00 0.00 2037.54 622.40">
<g id="graph0" class="graph" transform="scale(1 1) rotate(0) translate(4 618.4)">
<title>Tree</title>
<polygon fill="#ffffff" stroke="transparent" points="-4,4 -4,-618.4 2033.5356,-618.4 2033.5356,4 -4,4"/>
<!-- 0 -->
<g id="node1" class="node">
<title>0</title>
<polygon fill="none" stroke="#000000" points="896.3042,-614.5003 763.2314,-614.5003 763.2314,-539.0997 896.3042,-539.0997 896.3042,-614.5003"/>
<text text-anchor="middle" x="829.7678" y="-597.8" font-family="Times,serif" font-size="14.00" fill="#000000">X[3] &lt;= 937.909</text>
<text text-anchor="middle" x="829.7678" y="-581" font-family="Times,serif" font-size="14.00" fill="#000000">entropy = 0.097</text>
<text text-anchor="middle" x="829.7678" y="-564.2" font-family="Times,serif" font-size="14.00" fill="#000000">samples = 15108</text>
<text text-anchor="middle" x="829.7678" y="-547.4" font-family="Times,serif" font-size="14.00" fill="#000000">value = [188, 14920]</text>
</g>
<!-- 1 -->
<g id="node2" class="node">
<title>1</title>
<polygon fill="none" stroke="#000000" points="765.3043,-503.3003 646.2313,-503.3003 646.2313,-427.8997 765.3043,-427.8997 765.3043,-503.3003"/>
<text text-anchor="middle" x="705.7678" y="-486.6" font-family="Times,serif" font-size="14.00" fill="#000000">X[17] &lt;= 0.5</text>
<text text-anchor="middle" x="705.7678" y="-469.8" font-family="Times,serif" font-size="14.00" fill="#000000">entropy = 0.061</text>
<text text-anchor="middle" x="705.7678" y="-453" font-family="Times,serif" font-size="14.00" fill="#000000">samples = 9771</text>
<text text-anchor="middle" x="705.7678" y="-436.2" font-family="Times,serif" font-size="14.00" fill="#000000">value = [69, 9702]</text>
</g>
<!-- 0&#45;&gt;1 -->
<g id="edge1" class="edge">
<title>0-&gt;1</title>
<path fill="none" stroke="#000000" d="M787.7871,-539.1528C777.3841,-529.8237 766.1388,-519.7392 755.4084,-510.1164"/>
<polygon fill="#000000" stroke="#000000" points="757.4869,-507.2792 747.7053,-503.2085 752.8135,-512.4906 757.4869,-507.2792"/>
<text text-anchor="middle" x="749.0638" y="-523.9715" font-family="Times,serif" font-size="14.00" fill="#000000">True</text>
</g>
<!-- 18 -->
<g id="node19" class="node">
<title>18</title>
<polygon fill="none" stroke="#000000" points="1145.8042,-503.3003 1019.7314,-503.3003 1019.7314,-427.8997 1145.8042,-427.8997 1145.8042,-503.3003"/>
<text text-anchor="middle" x="1082.7678" y="-486.6" font-family="Times,serif" font-size="14.00" fill="#000000">X[3] &lt;= 937.989</text>
<text text-anchor="middle" x="1082.7678" y="-469.8" font-family="Times,serif" font-size="14.00" fill="#000000">entropy = 0.154</text>
<text text-anchor="middle" x="1082.7678" y="-453" font-family="Times,serif" font-size="14.00" fill="#000000">samples = 5337</text>
<text text-anchor="middle" x="1082.7678" y="-436.2" font-family="Times,serif" font-size="14.00" fill="#000000">value = [119, 5218]</text>
</g>
<!-- 0&#45;&gt;18 -->
<g id="edge18" class="edge">
<title>0-&gt;18</title>
<path fill="none" stroke="#000000" d="M896.5715,-547.4381C931.5129,-532.0804 974.3388,-513.2573 1010.1055,-497.537"/>
<polygon fill="#000000" stroke="#000000" points="1011.7678,-500.6296 1019.5142,-493.4016 1008.9511,-494.2212 1011.7678,-500.6296"/>
<text text-anchor="middle" x="1010.4438" y="-512.4981" font-family="Times,serif" font-size="14.00" fill="#000000">False</text>
</g>
<!-- 2 -->
<g id="node3" class="node">
<title>2</title>
<polygon fill="none" stroke="#000000" points="581.3043,-392.1003 462.2313,-392.1003 462.2313,-316.6997 581.3043,-316.6997 581.3043,-392.1003"/>
<text text-anchor="middle" x="521.7678" y="-375.4" font-family="Times,serif" font-size="14.00" fill="#000000">X[13] &lt;= 0.5</text>
<text text-anchor="middle" x="521.7678" y="-358.6" font-family="Times,serif" font-size="14.00" fill="#000000">entropy = 0.065</text>
<text text-anchor="middle" x="521.7678" y="-341.8" font-family="Times,serif" font-size="14.00" fill="#000000">samples = 8823</text>
<text text-anchor="middle" x="521.7678" y="-325" font-family="Times,serif" font-size="14.00" fill="#000000">value = [68, 8755]</text>
</g>
<!-- 1&#45;&gt;2 -->
<g id="edge2" class="edge">
<title>1-&gt;2</title>
<path fill="none" stroke="#000000" d="M646.0283,-429.4965C628.2631,-418.7602 608.6603,-406.9133 590.3775,-395.8641"/>
<polygon fill="#000000" stroke="#000000" points="591.891,-392.6893 581.5222,-390.5125 588.2704,-398.6803 591.891,-392.6893"/>
</g>
<!-- 11 -->
<g id="node12" class="node">
<title>11</title>
<polygon fill="none" stroke="#000000" points="758.3044,-392.1003 653.2312,-392.1003 653.2312,-316.6997 758.3044,-316.6997 758.3044,-392.1003"/>
<text text-anchor="middle" x="705.7678" y="-375.4" font-family="Times,serif" font-size="14.00" fill="#000000">X[0] &lt;= 5.5</text>
<text text-anchor="middle" x="705.7678" y="-358.6" font-family="Times,serif" font-size="14.00" fill="#000000">entropy = 0.012</text>
<text text-anchor="middle" x="705.7678" y="-341.8" font-family="Times,serif" font-size="14.00" fill="#000000">samples = 948</text>
<text text-anchor="middle" x="705.7678" y="-325" font-family="Times,serif" font-size="14.00" fill="#000000">value = [1, 947]</text>
</g>
<!-- 1&#45;&gt;11 -->
<g id="edge11" class="edge">
<title>1-&gt;11</title>
<path fill="none" stroke="#000000" d="M705.7678,-427.9528C705.7678,-419.62 705.7678,-410.6845 705.7678,-402.0137"/>
<polygon fill="#000000" stroke="#000000" points="709.2679,-402.0084 705.7678,-392.0085 702.2679,-402.0085 709.2679,-402.0084"/>
</g>
<!-- 3 -->
<g id="node4" class="node">
<title>3</title>
<polygon fill="none" stroke="#000000" points="439.3043,-280.9003 320.2313,-280.9003 320.2313,-205.4997 439.3043,-205.4997 439.3043,-280.9003"/>
<text text-anchor="middle" x="379.7678" y="-264.2" font-family="Times,serif" font-size="14.00" fill="#000000">X[7] &lt;= 0.5</text>
<text text-anchor="middle" x="379.7678" y="-247.4" font-family="Times,serif" font-size="14.00" fill="#000000">entropy = 0.068</text>
<text text-anchor="middle" x="379.7678" y="-230.6" font-family="Times,serif" font-size="14.00" fill="#000000">samples = 8381</text>
<text text-anchor="middle" x="379.7678" y="-213.8" font-family="Times,serif" font-size="14.00" fill="#000000">value = [68, 8313]</text>
</g>
<!-- 2&#45;&gt;3 -->
<g id="edge3" class="edge">
<title>2-&gt;3</title>
<path fill="none" stroke="#000000" d="M473.6931,-316.7528C461.5487,-307.2425 448.4019,-296.9473 435.8991,-287.1564"/>
<polygon fill="#000000" stroke="#000000" points="437.8241,-284.2184 427.793,-280.8085 433.5083,-289.7296 437.8241,-284.2184"/>
</g>
<!-- 10 -->
<g id="node11" class="node">
<title>10</title>
<polygon fill="none" stroke="#000000" points="574.3044,-272.6014 469.2312,-272.6014 469.2312,-213.7986 574.3044,-213.7986 574.3044,-272.6014"/>
<text text-anchor="middle" x="521.7678" y="-255.8" font-family="Times,serif" font-size="14.00" fill="#000000">entropy = 0.0</text>
<text text-anchor="middle" x="521.7678" y="-239" font-family="Times,serif" font-size="14.00" fill="#000000">samples = 442</text>
<text text-anchor="middle" x="521.7678" y="-222.2" font-family="Times,serif" font-size="14.00" fill="#000000">value = [0, 442]</text>
</g>
<!-- 2&#45;&gt;10 -->
<g id="edge10" class="edge">
<title>2-&gt;10</title>
<path fill="none" stroke="#000000" d="M521.7678,-316.7528C521.7678,-305.8662 521.7678,-293.951 521.7678,-282.9411"/>
<polygon fill="#000000" stroke="#000000" points="525.2679,-282.7258 521.7678,-272.7258 518.2679,-282.7259 525.2679,-282.7258"/>
</g>
<!-- 4 -->
<g id="node5" class="node">
<title>4</title>
<polygon fill="none" stroke="#000000" points="257.3043,-169.7003 138.2313,-169.7003 138.2313,-94.2997 257.3043,-94.2997 257.3043,-169.7003"/>
<text text-anchor="middle" x="197.7678" y="-153" font-family="Times,serif" font-size="14.00" fill="#000000">X[4] &lt;= 86.5</text>
<text text-anchor="middle" x="197.7678" y="-136.2" font-family="Times,serif" font-size="14.00" fill="#000000">entropy = 0.06</text>
<text text-anchor="middle" x="197.7678" y="-119.4" font-family="Times,serif" font-size="14.00" fill="#000000">samples = 7033</text>
<text text-anchor="middle" x="197.7678" y="-102.6" font-family="Times,serif" font-size="14.00" fill="#000000">value = [49, 6984]</text>
</g>
<!-- 3&#45;&gt;4 -->
<g id="edge4" class="edge">
<title>3-&gt;4</title>
<path fill="none" stroke="#000000" d="M320.1742,-206.789C302.8905,-196.2288 283.884,-184.616 266.1092,-173.7558"/>
<polygon fill="#000000" stroke="#000000" points="267.8534,-170.72 257.4953,-168.4928 264.2038,-176.6933 267.8534,-170.72"/>
</g>
<!-- 7 -->
<g id="node8" class="node">
<title>7</title>
<polygon fill="none" stroke="#000000" points="439.3043,-169.7003 320.2313,-169.7003 320.2313,-94.2997 439.3043,-94.2997 439.3043,-169.7003"/>
<text text-anchor="middle" x="379.7678" y="-153" font-family="Times,serif" font-size="14.00" fill="#000000">X[4] &lt;= 129.5</text>
<text text-anchor="middle" x="379.7678" y="-136.2" font-family="Times,serif" font-size="14.00" fill="#000000">entropy = 0.107</text>
<text text-anchor="middle" x="379.7678" y="-119.4" font-family="Times,serif" font-size="14.00" fill="#000000">samples = 1348</text>
<text text-anchor="middle" x="379.7678" y="-102.6" font-family="Times,serif" font-size="14.00" fill="#000000">value = [19, 1329]</text>
</g>
<!-- 3&#45;&gt;7 -->
<g id="edge7" class="edge">
<title>3-&gt;7</title>
<path fill="none" stroke="#000000" d="M379.7678,-205.5528C379.7678,-197.22 379.7678,-188.2845 379.7678,-179.6137"/>
<polygon fill="#000000" stroke="#000000" points="383.2679,-179.6084 379.7678,-169.6085 376.2679,-179.6085 383.2679,-179.6084"/>
</g>
<!-- 5 -->
<g id="node6" class="node">
<title>5</title>
<polygon fill="none" stroke="#000000" points="119.3043,-58.6014 .2313,-58.6014 .2313,.2014 119.3043,.2014 119.3043,-58.6014"/>
<text text-anchor="middle" x="59.7678" y="-41.8" font-family="Times,serif" font-size="14.00" fill="#000000">entropy = 0.052</text>
<text text-anchor="middle" x="59.7678" y="-25" font-family="Times,serif" font-size="14.00" fill="#000000">samples = 5596</text>
<text text-anchor="middle" x="59.7678" y="-8.2" font-family="Times,serif" font-size="14.00" fill="#000000">value = [33, 5563]</text>
</g>
<!-- 4&#45;&gt;5 -->
<g id="edge5" class="edge">
<title>4-&gt;5</title>
<path fill="none" stroke="#000000" d="M147.1653,-94.3048C134.1663,-84.6215 120.2276,-74.2382 107.3854,-64.6717"/>
<polygon fill="#000000" stroke="#000000" points="109.2359,-61.6858 99.1255,-58.5186 105.0541,-67.2994 109.2359,-61.6858"/>
</g>
<!-- 6 -->
<g id="node7" class="node">
<title>6</title>
<polygon fill="none" stroke="#000000" points="257.3043,-58.6014 138.2313,-58.6014 138.2313,.2014 257.3043,.2014 257.3043,-58.6014"/>
<text text-anchor="middle" x="197.7678" y="-41.8" font-family="Times,serif" font-size="14.00" fill="#000000">entropy = 0.088</text>
<text text-anchor="middle" x="197.7678" y="-25" font-family="Times,serif" font-size="14.00" fill="#000000">samples = 1437</text>
<text text-anchor="middle" x="197.7678" y="-8.2" font-family="Times,serif" font-size="14.00" fill="#000000">value = [16, 1421]</text>
</g>
<!-- 4&#45;&gt;6 -->
<g id="edge6" class="edge">
<title>4-&gt;6</title>
<path fill="none" stroke="#000000" d="M197.7678,-94.3048C197.7678,-85.9126 197.7678,-76.9946 197.7678,-68.5382"/>
<polygon fill="#000000" stroke="#000000" points="201.2679,-68.5186 197.7678,-58.5186 194.2679,-68.5187 201.2679,-68.5186"/>
</g>
<!-- 8 -->
<g id="node9" class="node">
<title>8</title>
<polygon fill="none" stroke="#000000" points="395.3043,-58.6014 276.2313,-58.6014 276.2313,.2014 395.3043,.2014 395.3043,-58.6014"/>
<text text-anchor="middle" x="335.7678" y="-41.8" font-family="Times,serif" font-size="14.00" fill="#000000">entropy = 0.096</text>
<text text-anchor="middle" x="335.7678" y="-25" font-family="Times,serif" font-size="14.00" fill="#000000">samples = 1300</text>
<text text-anchor="middle" x="335.7678" y="-8.2" font-family="Times,serif" font-size="14.00" fill="#000000">value = [16, 1284]</text>
</g>
<!-- 7&#45;&gt;8 -->
<g id="edge8" class="edge">
<title>7-&gt;8</title>
<path fill="none" stroke="#000000" d="M363.6337,-94.3048C359.9627,-85.7282 356.0567,-76.6024 352.3668,-67.9813"/>
<polygon fill="#000000" stroke="#000000" points="355.4692,-66.3347 348.3166,-58.5186 349.0339,-69.0892 355.4692,-66.3347"/>
</g>
<!-- 9 -->
<g id="node10" class="node">
<title>9</title>
<polygon fill="none" stroke="#000000" points="518.4283,-58.6014 413.1073,-58.6014 413.1073,.2014 518.4283,.2014 518.4283,-58.6014"/>
<text text-anchor="middle" x="465.7678" y="-41.8" font-family="Times,serif" font-size="14.00" fill="#000000">entropy = 0.337</text>
<text text-anchor="middle" x="465.7678" y="-25" font-family="Times,serif" font-size="14.00" fill="#000000">samples = 48</text>
<text text-anchor="middle" x="465.7678" y="-8.2" font-family="Times,serif" font-size="14.00" fill="#000000">value = [3, 45]</text>
</g>
<!-- 7&#45;&gt;9 -->
<g id="edge9" class="edge">
<title>7-&gt;9</title>
<path fill="none" stroke="#000000" d="M411.3027,-94.3048C418.9406,-85.1748 427.0991,-75.4225 434.7146,-66.3193"/>
<polygon fill="#000000" stroke="#000000" points="437.5085,-68.4344 441.2405,-58.5186 432.1395,-63.9428 437.5085,-68.4344"/>
</g>
<!-- 12 -->
<g id="node13" class="node">
<title>12</title>
<polygon fill="none" stroke="#000000" points="728.3044,-280.9003 623.2312,-280.9003 623.2312,-205.4997 728.3044,-205.4997 728.3044,-280.9003"/>
<text text-anchor="middle" x="675.7678" y="-264.2" font-family="Times,serif" font-size="14.00" fill="#000000">X[5] &lt;= 0.5</text>
<text text-anchor="middle" x="675.7678" y="-247.4" font-family="Times,serif" font-size="14.00" fill="#000000">entropy = 0.045</text>
<text text-anchor="middle" x="675.7678" y="-230.6" font-family="Times,serif" font-size="14.00" fill="#000000">samples = 201</text>
<text text-anchor="middle" x="675.7678" y="-213.8" font-family="Times,serif" font-size="14.00" fill="#000000">value = [1, 200]</text>
</g>
<!-- 11&#45;&gt;12 -->
<g id="edge12" class="edge">
<title>11-&gt;12</title>
<path fill="none" stroke="#000000" d="M695.6112,-316.7528C693.3387,-308.3294 690.9001,-299.2902 688.537,-290.5311"/>
<polygon fill="#000000" stroke="#000000" points="691.8979,-289.5516 685.914,-280.8085 685.1396,-291.375 691.8979,-289.5516"/>
</g>
<!-- 17 -->
<g id="node18" class="node">
<title>17</title>
<polygon fill="none" stroke="#000000" points="852.3044,-272.6014 747.2312,-272.6014 747.2312,-213.7986 852.3044,-213.7986 852.3044,-272.6014"/>
<text text-anchor="middle" x="799.7678" y="-255.8" font-family="Times,serif" font-size="14.00" fill="#000000">entropy = 0.0</text>
<text text-anchor="middle" x="799.7678" y="-239" font-family="Times,serif" font-size="14.00" fill="#000000">samples = 747</text>
<text text-anchor="middle" x="799.7678" y="-222.2" font-family="Times,serif" font-size="14.00" fill="#000000">value = [0, 747]</text>
</g>
<!-- 11&#45;&gt;17 -->
<g id="edge17" class="edge">
<title>11-&gt;17</title>
<path fill="none" stroke="#000000" d="M737.5919,-316.7528C747.4587,-305.0806 758.3251,-292.2259 768.176,-280.5724"/>
<polygon fill="#000000" stroke="#000000" points="771.0261,-282.6224 774.8089,-272.7258 765.6802,-278.1033 771.0261,-282.6224"/>
</g>
<!-- 13 -->
<g id="node14" class="node">
<title>13</title>
<polygon fill="none" stroke="#000000" points="627.3044,-161.4014 522.2312,-161.4014 522.2312,-102.5986 627.3044,-102.5986 627.3044,-161.4014"/>
<text text-anchor="middle" x="574.7678" y="-144.6" font-family="Times,serif" font-size="14.00" fill="#000000">entropy = 0.0</text>
<text text-anchor="middle" x="574.7678" y="-127.8" font-family="Times,serif" font-size="14.00" fill="#000000">samples = 148</text>
<text text-anchor="middle" x="574.7678" y="-111" font-family="Times,serif" font-size="14.00" fill="#000000">value = [0, 148]</text>
</g>
<!-- 12&#45;&gt;13 -->
<g id="edge13" class="edge">
<title>12-&gt;13</title>
<path fill="none" stroke="#000000" d="M641.5738,-205.5528C630.8703,-193.7683 619.0721,-180.7786 608.4072,-169.0366"/>
<polygon fill="#000000" stroke="#000000" points="610.8996,-166.5751 601.5853,-161.5258 605.7179,-171.2815 610.8996,-166.5751"/>
</g>
<!-- 14 -->
<g id="node15" class="node">
<title>14</title>
<polygon fill="none" stroke="#000000" points="750.4283,-169.7003 645.1073,-169.7003 645.1073,-94.2997 750.4283,-94.2997 750.4283,-169.7003"/>
<text text-anchor="middle" x="697.7678" y="-153" font-family="Times,serif" font-size="14.00" fill="#000000">X[4] &lt;= 74.0</text>
<text text-anchor="middle" x="697.7678" y="-136.2" font-family="Times,serif" font-size="14.00" fill="#000000">entropy = 0.135</text>
<text text-anchor="middle" x="697.7678" y="-119.4" font-family="Times,serif" font-size="14.00" fill="#000000">samples = 53</text>
<text text-anchor="middle" x="697.7678" y="-102.6" font-family="Times,serif" font-size="14.00" fill="#000000">value = [1, 52]</text>
</g>
<!-- 12&#45;&gt;14 -->
<g id="edge14" class="edge">
<title>12-&gt;14</title>
<path fill="none" stroke="#000000" d="M683.216,-205.5528C684.8646,-197.22 686.6324,-188.2845 688.3478,-179.6137"/>
<polygon fill="#000000" stroke="#000000" points="691.8198,-180.0976 690.3273,-169.6085 684.9529,-178.739 691.8198,-180.0976"/>
</g>
<!-- 15 -->
<g id="node16" class="node">
<title>15</title>
<polygon fill="none" stroke="#000000" points="641.4283,-58.6014 536.1073,-58.6014 536.1073,.2014 641.4283,.2014 641.4283,-58.6014"/>
<text text-anchor="middle" x="588.7678" y="-41.8" font-family="Times,serif" font-size="14.00" fill="#000000">entropy = 0.414</text>
<text text-anchor="middle" x="588.7678" y="-25" font-family="Times,serif" font-size="14.00" fill="#000000">samples = 12</text>
<text text-anchor="middle" x="588.7678" y="-8.2" font-family="Times,serif" font-size="14.00" fill="#000000">value = [1, 11]</text>
</g>
<!-- 14&#45;&gt;15 -->
<g id="edge15" class="edge">
<title>14-&gt;15</title>
<path fill="none" stroke="#000000" d="M657.7992,-94.3048C647.8252,-84.8982 637.1508,-74.8309 627.2503,-65.4936"/>
<polygon fill="#000000" stroke="#000000" points="629.5311,-62.8336 619.8547,-58.5186 624.7282,-67.926 629.5311,-62.8336"/>
</g>
<!-- 16 -->
<g id="node17" class="node">
<title>16</title>
<polygon fill="none" stroke="#000000" points="757.8045,-58.6014 659.7311,-58.6014 659.7311,.2014 757.8045,.2014 757.8045,-58.6014"/>
<text text-anchor="middle" x="708.7678" y="-41.8" font-family="Times,serif" font-size="14.00" fill="#000000">entropy = 0.0</text>
<text text-anchor="middle" x="708.7678" y="-25" font-family="Times,serif" font-size="14.00" fill="#000000">samples = 41</text>
<text text-anchor="middle" x="708.7678" y="-8.2" font-family="Times,serif" font-size="14.00" fill="#000000">value = [0, 41]</text>
</g>
<!-- 14&#45;&gt;16 -->
<g id="edge16" class="edge">
<title>14-&gt;16</title>
<path fill="none" stroke="#000000" d="M701.8013,-94.3048C702.6993,-85.9126 703.6536,-76.9946 704.5585,-68.5382"/>
<polygon fill="#000000" stroke="#000000" points="708.0467,-68.8343 705.6306,-58.5186 701.0864,-68.0895 708.0467,-68.8343"/>
</g>
<!-- 19 -->
<g id="node20" class="node">
<title>19</title>
<polygon fill="none" stroke="#000000" points="1138.8044,-392.1003 1026.7312,-392.1003 1026.7312,-316.6997 1138.8044,-316.6997 1138.8044,-392.1003"/>
<text text-anchor="middle" x="1082.7678" y="-375.4" font-family="Times,serif" font-size="14.00" fill="#000000">X[9] &lt;= 0.5</text>
<text text-anchor="middle" x="1082.7678" y="-358.6" font-family="Times,serif" font-size="14.00" fill="#000000">entropy = 0.347</text>
<text text-anchor="middle" x="1082.7678" y="-341.8" font-family="Times,serif" font-size="14.00" fill="#000000">samples = 1046</text>
<text text-anchor="middle" x="1082.7678" y="-325" font-family="Times,serif" font-size="14.00" fill="#000000">value = [68, 978]</text>
</g>
<!-- 18&#45;&gt;19 -->
<g id="edge19" class="edge">
<title>18-&gt;19</title>
<path fill="none" stroke="#000000" d="M1082.7678,-427.9528C1082.7678,-419.62 1082.7678,-410.6845 1082.7678,-402.0137"/>
<polygon fill="#000000" stroke="#000000" points="1086.2679,-402.0084 1082.7678,-392.0085 1079.2679,-402.0085 1086.2679,-402.0084"/>
</g>
<!-- 30 -->
<g id="node31" class="node">
<title>30</title>
<polygon fill="none" stroke="#000000" points="1515.3043,-392.1003 1396.2313,-392.1003 1396.2313,-316.6997 1515.3043,-316.6997 1515.3043,-392.1003"/>
<text text-anchor="middle" x="1455.7678" y="-375.4" font-family="Times,serif" font-size="14.00" fill="#000000">X[0] &lt;= 7.5</text>
<text text-anchor="middle" x="1455.7678" y="-358.6" font-family="Times,serif" font-size="14.00" fill="#000000">entropy = 0.093</text>
<text text-anchor="middle" x="1455.7678" y="-341.8" font-family="Times,serif" font-size="14.00" fill="#000000">samples = 4291</text>
<text text-anchor="middle" x="1455.7678" y="-325" font-family="Times,serif" font-size="14.00" fill="#000000">value = [51, 4240]</text>
</g>
<!-- 18&#45;&gt;30 -->
<g id="edge30" class="edge">
<title>18-&gt;30</title>
<path fill="none" stroke="#000000" d="M1146.0422,-446.7364C1212.7048,-426.8628 1317.3865,-395.6547 1386.2971,-375.1108"/>
<polygon fill="#000000" stroke="#000000" points="1387.6127,-378.3709 1396.1959,-372.1598 1385.6128,-371.6627 1387.6127,-378.3709"/>
</g>
<!-- 20 -->
<g id="node21" class="node">
<title>20</title>
<polygon fill="none" stroke="#000000" points="1073.8044,-280.9003 961.7312,-280.9003 961.7312,-205.4997 1073.8044,-205.4997 1073.8044,-280.9003"/>
<text text-anchor="middle" x="1017.7678" y="-264.2" font-family="Times,serif" font-size="14.00" fill="#000000">X[11] &lt;= 0.5</text>
<text text-anchor="middle" x="1017.7678" y="-247.4" font-family="Times,serif" font-size="14.00" fill="#000000">entropy = 0.283</text>
<text text-anchor="middle" x="1017.7678" y="-230.6" font-family="Times,serif" font-size="14.00" fill="#000000">samples = 670</text>
<text text-anchor="middle" x="1017.7678" y="-213.8" font-family="Times,serif" font-size="14.00" fill="#000000">value = [33, 637]</text>
</g>
<!-- 19&#45;&gt;20 -->
<g id="edge20" class="edge">
<title>19-&gt;20</title>
<path fill="none" stroke="#000000" d="M1060.7618,-316.7528C1055.6792,-308.0577 1050.2131,-298.7064 1044.9394,-289.6843"/>
<polygon fill="#000000" stroke="#000000" points="1047.8193,-287.6755 1039.7512,-280.8085 1041.776,-291.208 1047.8193,-287.6755"/>
</g>
<!-- 25 -->
<g id="node26" class="node">
<title>25</title>
<polygon fill="none" stroke="#000000" points="1204.8044,-280.9003 1092.7312,-280.9003 1092.7312,-205.4997 1204.8044,-205.4997 1204.8044,-280.9003"/>
<text text-anchor="middle" x="1148.7678" y="-264.2" font-family="Times,serif" font-size="14.00" fill="#000000">X[4] &lt;= 95.5</text>
<text text-anchor="middle" x="1148.7678" y="-247.4" font-family="Times,serif" font-size="14.00" fill="#000000">entropy = 0.447</text>
<text text-anchor="middle" x="1148.7678" y="-230.6" font-family="Times,serif" font-size="14.00" fill="#000000">samples = 376</text>
<text text-anchor="middle" x="1148.7678" y="-213.8" font-family="Times,serif" font-size="14.00" fill="#000000">value = [35, 341]</text>
</g>
<!-- 19&#45;&gt;25 -->
<g id="edge25" class="edge">
<title>19-&gt;25</title>
<path fill="none" stroke="#000000" d="M1105.1124,-316.7528C1110.2731,-308.0577 1115.8234,-298.7064 1121.1782,-289.6843"/>
<polygon fill="#000000" stroke="#000000" points="1124.352,-291.1943 1126.4462,-280.8085 1118.3324,-287.6215 1124.352,-291.1943"/>
</g>
<!-- 21 -->
<g id="node22" class="node">
<title>21</title>
<polygon fill="none" stroke="#000000" points="948.8044,-169.7003 836.7312,-169.7003 836.7312,-94.2997 948.8044,-94.2997 948.8044,-169.7003"/>
<text text-anchor="middle" x="892.7678" y="-153" font-family="Times,serif" font-size="14.00" fill="#000000">X[5] &lt;= 0.5</text>
<text text-anchor="middle" x="892.7678" y="-136.2" font-family="Times,serif" font-size="14.00" fill="#000000">entropy = 0.273</text>
<text text-anchor="middle" x="892.7678" y="-119.4" font-family="Times,serif" font-size="14.00" fill="#000000">samples = 662</text>
<text text-anchor="middle" x="892.7678" y="-102.6" font-family="Times,serif" font-size="14.00" fill="#000000">value = [31, 631]</text>
</g>
<!-- 20&#45;&gt;21 -->
<g id="edge21" class="edge">
<title>20-&gt;21</title>
<path fill="none" stroke="#000000" d="M975.4485,-205.5528C964.9617,-196.2237 953.6257,-186.1392 942.8087,-176.5164"/>
<polygon fill="#000000" stroke="#000000" points="944.8413,-173.6401 935.0435,-169.6085 940.1887,-178.8701 944.8413,-173.6401"/>
</g>
<!-- 24 -->
<g id="node25" class="node">
<title>24</title>
<polygon fill="none" stroke="#000000" points="1072.4283,-161.4014 967.1073,-161.4014 967.1073,-102.5986 1072.4283,-102.5986 1072.4283,-161.4014"/>
<text text-anchor="middle" x="1019.7678" y="-144.6" font-family="Times,serif" font-size="14.00" fill="#000000">entropy = 0.811</text>
<text text-anchor="middle" x="1019.7678" y="-127.8" font-family="Times,serif" font-size="14.00" fill="#000000">samples = 8</text>
<text text-anchor="middle" x="1019.7678" y="-111" font-family="Times,serif" font-size="14.00" fill="#000000">value = [2, 6]</text>
</g>
<!-- 20&#45;&gt;24 -->
<g id="edge24" class="edge">
<title>20-&gt;24</title>
<path fill="none" stroke="#000000" d="M1018.4449,-205.5528C1018.6407,-194.6662 1018.855,-182.751 1019.053,-171.7411"/>
<polygon fill="#000000" stroke="#000000" points="1022.5563,-171.5872 1019.2368,-161.5258 1015.5574,-171.4612 1022.5563,-171.5872"/>
</g>
<!-- 22 -->
<g id="node23" class="node">
<title>22</title>
<polygon fill="none" stroke="#000000" points="888.8044,-58.6014 776.7312,-58.6014 776.7312,.2014 888.8044,.2014 888.8044,-58.6014"/>
<text text-anchor="middle" x="832.7678" y="-41.8" font-family="Times,serif" font-size="14.00" fill="#000000">entropy = 0.306</text>
<text text-anchor="middle" x="832.7678" y="-25" font-family="Times,serif" font-size="14.00" fill="#000000">samples = 493</text>
<text text-anchor="middle" x="832.7678" y="-8.2" font-family="Times,serif" font-size="14.00" fill="#000000">value = [27, 466]</text>
</g>
<!-- 21&#45;&gt;22 -->
<g id="edge22" class="edge">
<title>21-&gt;22</title>
<path fill="none" stroke="#000000" d="M870.7667,-94.3048C865.6532,-85.5437 860.2053,-76.2096 855.0786,-67.4259"/>
<polygon fill="#000000" stroke="#000000" points="857.9435,-65.3909 849.8798,-58.5186 851.8979,-68.9195 857.9435,-65.3909"/>
</g>
<!-- 23 -->
<g id="node24" class="node">
<title>23</title>
<polygon fill="none" stroke="#000000" points="1012.3044,-58.6014 907.2312,-58.6014 907.2312,.2014 1012.3044,.2014 1012.3044,-58.6014"/>
<text text-anchor="middle" x="959.7678" y="-41.8" font-family="Times,serif" font-size="14.00" fill="#000000">entropy = 0.162</text>
<text text-anchor="middle" x="959.7678" y="-25" font-family="Times,serif" font-size="14.00" fill="#000000">samples = 169</text>
<text text-anchor="middle" x="959.7678" y="-8.2" font-family="Times,serif" font-size="14.00" fill="#000000">value = [4, 165]</text>
</g>
<!-- 21&#45;&gt;23 -->
<g id="edge23" class="edge">
<title>21-&gt;23</title>
<path fill="none" stroke="#000000" d="M917.3357,-94.3048C923.1058,-85.4515 929.2574,-76.013 935.0347,-67.1487"/>
<polygon fill="#000000" stroke="#000000" points="938.1313,-68.8075 940.6594,-58.5186 932.2669,-64.9853 938.1313,-68.8075"/>
</g>
<!-- 26 -->
<g id="node27" class="node">
<title>26</title>
<polygon fill="none" stroke="#000000" points="1202.8044,-169.7003 1090.7312,-169.7003 1090.7312,-94.2997 1202.8044,-94.2997 1202.8044,-169.7003"/>
<text text-anchor="middle" x="1146.7678" y="-153" font-family="Times,serif" font-size="14.00" fill="#000000">X[0] &lt;= 2.5</text>
<text text-anchor="middle" x="1146.7678" y="-136.2" font-family="Times,serif" font-size="14.00" fill="#000000">entropy = 0.492</text>
<text text-anchor="middle" x="1146.7678" y="-119.4" font-family="Times,serif" font-size="14.00" fill="#000000">samples = 326</text>
<text text-anchor="middle" x="1146.7678" y="-102.6" font-family="Times,serif" font-size="14.00" fill="#000000">value = [35, 291]</text>
</g>
<!-- 25&#45;&gt;26 -->
<g id="edge26" class="edge">
<title>25-&gt;26</title>
<path fill="none" stroke="#000000" d="M1148.0907,-205.5528C1147.9408,-197.22 1147.7801,-188.2845 1147.6242,-179.6137"/>
<polygon fill="#000000" stroke="#000000" points="1151.1236,-179.5439 1147.4442,-169.6085 1144.1247,-179.6698 1151.1236,-179.5439"/>
</g>
<!-- 29 -->
<g id="node30" class="node">
<title>29</title>
<polygon fill="none" stroke="#000000" points="1319.8045,-161.4014 1221.7311,-161.4014 1221.7311,-102.5986 1319.8045,-102.5986 1319.8045,-161.4014"/>
<text text-anchor="middle" x="1270.7678" y="-144.6" font-family="Times,serif" font-size="14.00" fill="#000000">entropy = 0.0</text>
<text text-anchor="middle" x="1270.7678" y="-127.8" font-family="Times,serif" font-size="14.00" fill="#000000">samples = 50</text>
<text text-anchor="middle" x="1270.7678" y="-111" font-family="Times,serif" font-size="14.00" fill="#000000">value = [0, 50]</text>
</g>
<!-- 25&#45;&gt;29 -->
<g id="edge29" class="edge">
<title>25-&gt;29</title>
<path fill="none" stroke="#000000" d="M1190.0714,-205.5528C1203.2467,-193.5439 1217.7951,-180.2833 1230.8688,-168.367"/>
<polygon fill="#000000" stroke="#000000" points="1233.3414,-170.849 1238.3743,-161.5258 1228.626,-165.6755 1233.3414,-170.849"/>
</g>
<!-- 27 -->
<g id="node28" class="node">
<title>27</title>
<polygon fill="none" stroke="#000000" points="1128.8045,-58.6014 1030.7311,-58.6014 1030.7311,.2014 1128.8045,.2014 1128.8045,-58.6014"/>
<text text-anchor="middle" x="1079.7678" y="-41.8" font-family="Times,serif" font-size="14.00" fill="#000000">entropy = 0.0</text>
<text text-anchor="middle" x="1079.7678" y="-25" font-family="Times,serif" font-size="14.00" fill="#000000">samples = 18</text>
<text text-anchor="middle" x="1079.7678" y="-8.2" font-family="Times,serif" font-size="14.00" fill="#000000">value = [0, 18]</text>
</g>
<!-- 26&#45;&gt;27 -->
<g id="edge27" class="edge">
<title>26-&gt;27</title>
<path fill="none" stroke="#000000" d="M1122.1999,-94.3048C1116.4298,-85.4515 1110.2782,-76.013 1104.5009,-67.1487"/>
<polygon fill="#000000" stroke="#000000" points="1107.2687,-64.9853 1098.8762,-58.5186 1101.4043,-68.8075 1107.2687,-64.9853"/>
</g>
<!-- 28 -->
<g id="node29" class="node">
<title>28</title>
<polygon fill="none" stroke="#000000" points="1259.8044,-58.6014 1147.7312,-58.6014 1147.7312,.2014 1259.8044,.2014 1259.8044,-58.6014"/>
<text text-anchor="middle" x="1203.7678" y="-41.8" font-family="Times,serif" font-size="14.00" fill="#000000">entropy = 0.511</text>
<text text-anchor="middle" x="1203.7678" y="-25" font-family="Times,serif" font-size="14.00" fill="#000000">samples = 308</text>
<text text-anchor="middle" x="1203.7678" y="-8.2" font-family="Times,serif" font-size="14.00" fill="#000000">value = [35, 273]</text>
</g>
<!-- 26&#45;&gt;28 -->
<g id="edge28" class="edge">
<title>26-&gt;28</title>
<path fill="none" stroke="#000000" d="M1167.6688,-94.3048C1172.5266,-85.5437 1177.7022,-76.2096 1182.5725,-67.4259"/>
<polygon fill="#000000" stroke="#000000" points="1185.7231,-68.9615 1187.5114,-58.5186 1179.6011,-65.567 1185.7231,-68.9615"/>
</g>
<!-- 31 -->
<g id="node32" class="node">
<title>31</title>
<polygon fill="none" stroke="#000000" points="1515.3043,-280.9003 1396.2313,-280.9003 1396.2313,-205.4997 1515.3043,-205.4997 1515.3043,-280.9003"/>
<text text-anchor="middle" x="1455.7678" y="-264.2" font-family="Times,serif" font-size="14.00" fill="#000000">X[4] &lt;= 102.5</text>
<text text-anchor="middle" x="1455.7678" y="-247.4" font-family="Times,serif" font-size="14.00" fill="#000000">entropy = 0.121</text>
<text text-anchor="middle" x="1455.7678" y="-230.6" font-family="Times,serif" font-size="14.00" fill="#000000">samples = 2320</text>
<text text-anchor="middle" x="1455.7678" y="-213.8" font-family="Times,serif" font-size="14.00" fill="#000000">value = [38, 2282]</text>
</g>
<!-- 30&#45;&gt;31 -->
<g id="edge31" class="edge">
<title>30-&gt;31</title>
<path fill="none" stroke="#000000" d="M1455.7678,-316.7528C1455.7678,-308.42 1455.7678,-299.4845 1455.7678,-290.8137"/>
<polygon fill="#000000" stroke="#000000" points="1459.2679,-290.8084 1455.7678,-280.8085 1452.2679,-290.8085 1459.2679,-290.8084"/>
</g>
<!-- 36 -->
<g id="node37" class="node">
<title>36</title>
<polygon fill="none" stroke="#000000" points="1711.3043,-280.9003 1592.2313,-280.9003 1592.2313,-205.4997 1711.3043,-205.4997 1711.3043,-280.9003"/>
<text text-anchor="middle" x="1651.7678" y="-264.2" font-family="Times,serif" font-size="14.00" fill="#000000">X[4] &lt;= 15.5</text>
<text text-anchor="middle" x="1651.7678" y="-247.4" font-family="Times,serif" font-size="14.00" fill="#000000">entropy = 0.057</text>
<text text-anchor="middle" x="1651.7678" y="-230.6" font-family="Times,serif" font-size="14.00" fill="#000000">samples = 1971</text>
<text text-anchor="middle" x="1651.7678" y="-213.8" font-family="Times,serif" font-size="14.00" fill="#000000">value = [13, 1958]</text>
</g>
<!-- 30&#45;&gt;36 -->
<g id="edge36" class="edge">
<title>30-&gt;36</title>
<path fill="none" stroke="#000000" d="M1515.3726,-320.5834C1536.7538,-308.4528 1561.0314,-294.679 1583.1179,-282.1483"/>
<polygon fill="#000000" stroke="#000000" points="1585.1383,-285.0261 1592.1089,-277.0473 1581.6841,-278.9378 1585.1383,-285.0261"/>
</g>
<!-- 32 -->
<g id="node33" class="node">
<title>32</title>
<polygon fill="none" stroke="#000000" points="1457.3043,-169.7003 1338.2313,-169.7003 1338.2313,-94.2997 1457.3043,-94.2997 1457.3043,-169.7003"/>
<text text-anchor="middle" x="1397.7678" y="-153" font-family="Times,serif" font-size="14.00" fill="#000000">X[3] &lt;= 2940.5</text>
<text text-anchor="middle" x="1397.7678" y="-136.2" font-family="Times,serif" font-size="14.00" fill="#000000">entropy = 0.127</text>
<text text-anchor="middle" x="1397.7678" y="-119.4" font-family="Times,serif" font-size="14.00" fill="#000000">samples = 2177</text>
<text text-anchor="middle" x="1397.7678" y="-102.6" font-family="Times,serif" font-size="14.00" fill="#000000">value = [38, 2139]</text>
</g>
<!-- 31&#45;&gt;32 -->
<g id="edge32" class="edge">
<title>31-&gt;32</title>
<path fill="none" stroke="#000000" d="M1436.1316,-205.5528C1431.5964,-196.8577 1426.719,-187.5064 1422.0132,-178.4843"/>
<polygon fill="#000000" stroke="#000000" points="1425.1116,-176.8563 1417.3837,-169.6085 1418.9051,-180.0935 1425.1116,-176.8563"/>
</g>
<!-- 35 -->
<g id="node36" class="node">
<title>35</title>
<polygon fill="none" stroke="#000000" points="1581.3044,-161.4014 1476.2312,-161.4014 1476.2312,-102.5986 1581.3044,-102.5986 1581.3044,-161.4014"/>
<text text-anchor="middle" x="1528.7678" y="-144.6" font-family="Times,serif" font-size="14.00" fill="#000000">entropy = 0.0</text>
<text text-anchor="middle" x="1528.7678" y="-127.8" font-family="Times,serif" font-size="14.00" fill="#000000">samples = 143</text>
<text text-anchor="middle" x="1528.7678" y="-111" font-family="Times,serif" font-size="14.00" fill="#000000">value = [0, 143]</text>
</g>
<!-- 31&#45;&gt;35 -->
<g id="edge35" class="edge">
<title>31-&gt;35</title>
<path fill="none" stroke="#000000" d="M1480.4823,-205.5528C1487.9974,-194.105 1496.2593,-181.5199 1503.7915,-170.046"/>
<polygon fill="#000000" stroke="#000000" points="1506.8228,-171.8062 1509.3848,-161.5258 1500.971,-167.9647 1506.8228,-171.8062"/>
</g>
<!-- 33 -->
<g id="node34" class="node">
<title>33</title>
<polygon fill="none" stroke="#000000" points="1397.3043,-58.6014 1278.2313,-58.6014 1278.2313,.2014 1397.3043,.2014 1397.3043,-58.6014"/>
<text text-anchor="middle" x="1337.7678" y="-41.8" font-family="Times,serif" font-size="14.00" fill="#000000">entropy = 0.112</text>
<text text-anchor="middle" x="1337.7678" y="-25" font-family="Times,serif" font-size="14.00" fill="#000000">samples = 1800</text>
<text text-anchor="middle" x="1337.7678" y="-8.2" font-family="Times,serif" font-size="14.00" fill="#000000">value = [27, 1773]</text>
</g>
<!-- 32&#45;&gt;33 -->
<g id="edge33" class="edge">
<title>32-&gt;33</title>
<path fill="none" stroke="#000000" d="M1375.7667,-94.3048C1370.6532,-85.5437 1365.2053,-76.2096 1360.0786,-67.4259"/>
<polygon fill="#000000" stroke="#000000" points="1362.9435,-65.3909 1354.8798,-58.5186 1356.8979,-68.9195 1362.9435,-65.3909"/>
</g>
<!-- 34 -->
<g id="node35" class="node">
<title>34</title>
<polygon fill="none" stroke="#000000" points="1527.8044,-58.6014 1415.7312,-58.6014 1415.7312,.2014 1527.8044,.2014 1527.8044,-58.6014"/>
<text text-anchor="middle" x="1471.7678" y="-41.8" font-family="Times,serif" font-size="14.00" fill="#000000">entropy = 0.19</text>
<text text-anchor="middle" x="1471.7678" y="-25" font-family="Times,serif" font-size="14.00" fill="#000000">samples = 377</text>
<text text-anchor="middle" x="1471.7678" y="-8.2" font-family="Times,serif" font-size="14.00" fill="#000000">value = [11, 366]</text>
</g>
<!-- 32&#45;&gt;34 -->
<g id="edge34" class="edge">
<title>32-&gt;34</title>
<path fill="none" stroke="#000000" d="M1424.9025,-94.3048C1431.3419,-85.3593 1438.2113,-75.8163 1444.6499,-66.8718"/>
<polygon fill="#000000" stroke="#000000" points="1447.6613,-68.6794 1450.6629,-58.5186 1441.9801,-64.5898 1447.6613,-68.6794"/>
</g>
<!-- 37 -->
<g id="node38" class="node">
<title>37</title>
<polygon fill="none" stroke="#000000" points="1704.4283,-169.7003 1599.1073,-169.7003 1599.1073,-94.2997 1704.4283,-94.2997 1704.4283,-169.7003"/>
<text text-anchor="middle" x="1651.7678" y="-153" font-family="Times,serif" font-size="14.00" fill="#000000">X[4] &lt;= 14.5</text>
<text text-anchor="middle" x="1651.7678" y="-136.2" font-family="Times,serif" font-size="14.00" fill="#000000">entropy = 0.422</text>
<text text-anchor="middle" x="1651.7678" y="-119.4" font-family="Times,serif" font-size="14.00" fill="#000000">samples = 35</text>
<text text-anchor="middle" x="1651.7678" y="-102.6" font-family="Times,serif" font-size="14.00" fill="#000000">value = [3, 32]</text>
</g>
<!-- 36&#45;&gt;37 -->
<g id="edge37" class="edge">
<title>36-&gt;37</title>
<path fill="none" stroke="#000000" d="M1651.7678,-205.5528C1651.7678,-197.22 1651.7678,-188.2845 1651.7678,-179.6137"/>
<polygon fill="#000000" stroke="#000000" points="1655.2679,-179.6084 1651.7678,-169.6085 1648.2679,-179.6085 1655.2679,-179.6084"/>
</g>
<!-- 40 -->
<g id="node41" class="node">
<title>40</title>
<polygon fill="none" stroke="#000000" points="1898.3043,-169.7003 1779.2313,-169.7003 1779.2313,-94.2997 1898.3043,-94.2997 1898.3043,-169.7003"/>
<text text-anchor="middle" x="1838.7678" y="-153" font-family="Times,serif" font-size="14.00" fill="#000000">X[4] &lt;= 74.5</text>
<text text-anchor="middle" x="1838.7678" y="-136.2" font-family="Times,serif" font-size="14.00" fill="#000000">entropy = 0.047</text>
<text text-anchor="middle" x="1838.7678" y="-119.4" font-family="Times,serif" font-size="14.00" fill="#000000">samples = 1936</text>
<text text-anchor="middle" x="1838.7678" y="-102.6" font-family="Times,serif" font-size="14.00" fill="#000000">value = [10, 1926]</text>
</g>
<!-- 36&#45;&gt;40 -->
<g id="edge40" class="edge">
<title>36-&gt;40</title>
<path fill="none" stroke="#000000" d="M1711.4499,-207.7099C1730.1737,-196.5757 1750.9887,-184.1981 1770.2721,-172.7311"/>
<polygon fill="#000000" stroke="#000000" points="1772.205,-175.6538 1779.0113,-167.5344 1768.6272,-169.6372 1772.205,-175.6538"/>
</g>
<!-- 38 -->
<g id="node39" class="node">
<title>38</title>
<polygon fill="none" stroke="#000000" points="1644.8045,-58.6014 1546.7311,-58.6014 1546.7311,.2014 1644.8045,.2014 1644.8045,-58.6014"/>
<text text-anchor="middle" x="1595.7678" y="-41.8" font-family="Times,serif" font-size="14.00" fill="#000000">entropy = 0.0</text>
<text text-anchor="middle" x="1595.7678" y="-25" font-family="Times,serif" font-size="14.00" fill="#000000">samples = 28</text>
<text text-anchor="middle" x="1595.7678" y="-8.2" font-family="Times,serif" font-size="14.00" fill="#000000">value = [0, 28]</text>
</g>
<!-- 37&#45;&gt;38 -->
<g id="edge38" class="edge">
<title>37-&gt;38</title>
<path fill="none" stroke="#000000" d="M1631.2335,-94.3048C1626.4609,-85.5437 1621.3761,-76.2096 1616.5912,-67.4259"/>
<polygon fill="#000000" stroke="#000000" points="1619.5964,-65.6259 1611.739,-58.5186 1613.4493,-68.9745 1619.5964,-65.6259"/>
</g>
<!-- 39 -->
<g id="node40" class="node">
<title>39</title>
<polygon fill="none" stroke="#000000" points="1768.4283,-58.6014 1663.1073,-58.6014 1663.1073,.2014 1768.4283,.2014 1768.4283,-58.6014"/>
<text text-anchor="middle" x="1715.7678" y="-41.8" font-family="Times,serif" font-size="14.00" fill="#000000">entropy = 0.985</text>
<text text-anchor="middle" x="1715.7678" y="-25" font-family="Times,serif" font-size="14.00" fill="#000000">samples = 7</text>
<text text-anchor="middle" x="1715.7678" y="-8.2" font-family="Times,serif" font-size="14.00" fill="#000000">value = [3, 4]</text>
</g>
<!-- 37&#45;&gt;39 -->
<g id="edge39" class="edge">
<title>37-&gt;39</title>
<path fill="none" stroke="#000000" d="M1675.2356,-94.3048C1680.7474,-85.4515 1686.6235,-76.013 1692.1422,-67.1487"/>
<polygon fill="#000000" stroke="#000000" points="1695.201,-68.8577 1697.515,-58.5186 1689.2585,-65.1581 1695.201,-68.8577"/>
</g>
<!-- 41 -->
<g id="node42" class="node">
<title>41</title>
<polygon fill="none" stroke="#000000" points="1891.3044,-58.6014 1786.2312,-58.6014 1786.2312,.2014 1891.3044,.2014 1891.3044,-58.6014"/>
<text text-anchor="middle" x="1838.7678" y="-41.8" font-family="Times,serif" font-size="14.00" fill="#000000">entropy = 0.0</text>
<text text-anchor="middle" x="1838.7678" y="-25" font-family="Times,serif" font-size="14.00" fill="#000000">samples = 591</text>
<text text-anchor="middle" x="1838.7678" y="-8.2" font-family="Times,serif" font-size="14.00" fill="#000000">value = [0, 591]</text>
</g>
<!-- 40&#45;&gt;41 -->
<g id="edge41" class="edge">
<title>40-&gt;41</title>
<path fill="none" stroke="#000000" d="M1838.7678,-94.3048C1838.7678,-85.9126 1838.7678,-76.9946 1838.7678,-68.5382"/>
<polygon fill="#000000" stroke="#000000" points="1842.2679,-68.5186 1838.7678,-58.5186 1835.2679,-68.5187 1842.2679,-68.5186"/>
</g>
<!-- 42 -->
<g id="node43" class="node">
<title>42</title>
<polygon fill="none" stroke="#000000" points="2029.3043,-58.6014 1910.2313,-58.6014 1910.2313,.2014 2029.3043,.2014 2029.3043,-58.6014"/>
<text text-anchor="middle" x="1969.7678" y="-41.8" font-family="Times,serif" font-size="14.00" fill="#000000">entropy = 0.063</text>
<text text-anchor="middle" x="1969.7678" y="-25" font-family="Times,serif" font-size="14.00" fill="#000000">samples = 1345</text>
<text text-anchor="middle" x="1969.7678" y="-8.2" font-family="Times,serif" font-size="14.00" fill="#000000">value = [10, 1335]</text>
</g>
<!-- 40&#45;&gt;42 -->
<g id="edge42" class="edge">
<title>40-&gt;42</title>
<path fill="none" stroke="#000000" d="M1886.8035,-94.3048C1899.0256,-84.7137 1912.1229,-74.4359 1924.217,-64.9452"/>
<polygon fill="#000000" stroke="#000000" points="1926.7003,-67.4455 1932.4065,-58.5186 1922.3788,-61.9387 1926.7003,-67.4455"/>
</g>
</g>
</svg>